name simplified_unscaled_model\angles_bicl.mot
datacolumns 15
datarows 81
range 0.500000 0.506050
endheader
time  TH_x TH_y TH_z SC_y SC_z SC_x AC_y AC_z AC_x GH_y GH_z GH_yy EL_x PS_y
0.500000	0.000000	0.000000	0.000000	-31.394043	10.740031	8.496593	57.475874	-1.927052	-2.271968	137.738038	4.357563	165.222886	80.500000	85.000000	
0.500076	0.000000	0.000000	0.000000	-31.059651	10.660888	9.843140	57.869041	-2.828021	-2.829734	117.890566	3.320295	-177.620396	80.500000	85.000000	
0.500151	0.000000	0.000000	0.000000	-28.789467	9.929446	8.769640	59.435028	-1.841513	-2.498812	60.376320	8.440028	-32.173335	80.500000	85.000000	
0.500227	0.000000	0.000000	0.000000	-30.227228	10.610646	10.678609	59.913914	-1.815110	-1.825187	41.417530	8.697535	-13.334106	80.500000	85.000000	
0.500302	0.000000	0.000000	0.000000	-32.891551	11.872014	16.893951	60.670907	-4.117517	-1.796917	9.627562	10.873090	15.446682	80.500000	85.000000	
0.500378	0.000000	0.000000	0.000000	-38.993282	14.912540	26.159069	63.147972	-3.957315	2.560434	-14.057283	24.943654	30.753190	80.500000	85.000000	
0.500454	0.000000	0.000000	0.000000	-46.807863	18.861842	42.719062	65.206187	-7.510325	7.815892	-16.253440	45.234904	22.038024	80.500000	85.000000	
0.500529	0.000000	0.000000	0.000000	-40.861001	16.019933	33.525054	64.638635	-6.624779	3.738077	0.239307	33.124226	8.470719	80.500000	85.000000	
0.500605	0.000000	0.000000	0.000000	-34.141889	12.723558	19.806058	62.728641	-3.219316	0.377173	21.069096	20.470553	-4.650539	80.500000	85.000000	
0.500681	0.000000	0.000000	0.000000	-28.560042	10.098833	10.168546	61.235922	-1.137432	-1.558314	53.869303	16.346302	-28.667363	80.500000	85.000000	
0.500756	0.000000	0.000000	0.000000	-26.840908	9.325806	9.954382	60.904993	-2.640078	-3.136978	63.303145	16.422890	-35.757425	80.500000	85.000000	
0.500832	0.000000	0.000000	0.000000	-31.886328	11.619812	16.884765	61.861065	-3.563439	-1.262692	32.015795	17.045609	-8.198427	80.500000	85.000000	
0.500907	0.000000	0.000000	0.000000	-40.195984	15.625396	30.517294	64.150244	-5.322585	3.440554	-4.660596	30.178344	18.221899	80.500000	85.000000	
0.500983	0.000000	0.000000	0.000000	-47.038502	19.056930	43.699377	65.618358	-7.454072	8.607503	-9.698994	46.791724	13.269741	80.500000	85.000000	
0.501059	0.000000	0.000000	0.000000	-44.786384	17.926076	39.205082	65.281791	-6.635771	6.876779	-8.830394	41.266974	13.945812	80.500000	85.000000	
0.501134	0.000000	0.000000	0.000000	-37.713468	14.418831	26.820146	63.515586	-5.209941	1.652168	3.073212	25.299087	9.709394	80.500000	85.000000	
0.501210	0.000000	0.000000	0.000000	-31.490671	10.789143	8.503754	57.532438	-1.795460	-2.144594	138.456507	4.040879	-132.159025	80.500000	85.000000	
0.501286	0.000000	0.000000	0.000000	-30.223184	10.770915	13.561716	60.962956	-3.063910	-2.095079	41.111531	13.703696	-46.136165	80.500000	85.000000	
0.501361	0.000000	0.000000	0.000000	-40.147053	15.582435	30.348769	64.025402	-5.381526	3.268397	-6.380685	29.663743	-4.555005	80.500000	85.000000	
0.501437	0.000000	0.000000	0.000000	-48.853319	19.888566	44.419204	65.542806	-6.075230	10.394031	-16.308840	50.386599	-3.814459	80.500000	85.000000	
0.501512	0.000000	0.000000	0.000000	-33.065639	12.129891	18.920127	61.856515	-4.347735	-1.188344	21.308650	16.574962	-27.528474	80.500000	85.000000	
0.501588	0.000000	0.000000	0.000000	-26.686928	9.097013	8.199897	59.797097	-2.510925	-3.488601	68.479469	11.955893	-69.221385	80.500000	85.000000	
0.501664	0.000000	0.000000	0.000000	-30.626073	10.906495	13.953613	60.713878	-3.363598	-2.220032	36.692076	12.199043	-36.231446	80.500000	85.000000	
0.501739	0.000000	0.000000	0.000000	-39.848317	15.417476	29.664245	63.842292	-5.304728	2.973240	-7.479642	28.618902	3.469463	80.500000	85.000000	
0.501815	0.000000	0.000000	0.000000	-47.845286	19.401825	44.530657	65.442180	-7.499860	8.926364	-14.756213	48.048542	6.100062	80.500000	85.000000	
0.501891	0.000000	0.000000	0.000000	-46.456059	18.701596	40.579728	65.313005	-5.951273	8.322958	-14.814176	44.533013	4.078209	80.500000	85.000000	
0.501966	0.000000	0.000000	0.000000	-37.986748	14.535554	24.774757	63.569810	-3.150484	2.796556	0.578977	25.399626	-8.526247	80.500000	85.000000	
0.502042	0.000000	0.000000	0.000000	-26.647447	8.971072	6.091263	59.075817	-1.584497	-3.155304	78.250789	9.727738	-74.802637	80.500000	85.000000	
0.502117	0.000000	0.000000	0.000000	-27.806413	9.499149	8.739133	59.316792	-2.678817	-3.355011	68.401434	9.249665	-62.773611	80.500000	85.000000	
0.502193	0.000000	0.000000	0.000000	-31.718378	10.904879	8.823045	57.660030	-1.740509	-2.005917	140.668591	3.298234	-159.065703	80.500000	85.000000	
0.502269	0.000000	0.000000	0.000000	-30.494364	10.760838	12.316372	60.136747	-2.738148	-2.168822	37.523096	9.523668	-66.397135	80.500000	85.000000	
0.502344	0.000000	0.000000	0.000000	-40.634263	15.820269	30.953256	64.148321	-5.285429	3.690735	-7.598774	30.709799	-24.887959	80.500000	85.000000	
0.502420	0.000000	0.000000	0.000000	-39.978401	15.681970	31.028082	65.049606	-4.816673	4.429886	10.770288	33.825268	-42.635083	80.500000	85.000000	
0.502495	0.000000	0.000000	0.000000	-30.515862	10.956307	14.810122	61.353723	-3.454125	-2.009712	40.282515	15.449384	-66.989889	80.500000	85.000000	
0.502571	0.000000	0.000000	0.000000	-32.837585	11.988692	17.933625	61.589184	-4.000352	-1.256801	20.558213	15.262110	-47.100545	80.500000	85.000000	
0.502647	0.000000	0.000000	0.000000	-42.512457	16.848142	35.560720	65.119805	-6.112510	5.448658	-1.576227	36.988984	-31.239528	80.500000	85.000000	
0.502722	0.000000	0.000000	0.000000	-41.543042	16.456926	33.622944	65.431936	-5.008417	5.669431	7.808156	37.029642	-40.320775	80.500000	85.000000	
0.502798	0.000000	0.000000	0.000000	-33.298682	12.327448	18.600192	62.527048	-3.119840	-0.064110	26.026483	19.686870	-54.461100	80.500000	85.000000	
0.502874	0.000000	0.000000	0.000000	-32.856779	11.766820	13.271806	60.148826	-1.695303	-0.715417	2.675576	8.168016	-57.249793	80.500000	85.000000	
0.502949	0.000000	0.000000	0.000000	-41.798017	16.352542	31.002624	64.258976	-4.072738	4.979274	-13.705893	32.635300	-39.172463	80.500000	85.000000	
0.503025	0.000000	0.000000	0.000000	-46.599008	18.829339	42.413793	65.550124	-6.977336	8.363285	-10.142375	45.614517	-47.843292	80.500000	85.000000	
0.503100	0.000000	0.000000	0.000000	-38.965147	14.939137	25.948820	63.395837	-3.494925	2.972338	-9.802214	25.706569	-49.796609	80.500000	85.000000	
0.503176	0.000000	0.000000	0.000000	-32.307345	11.542117	12.904867	60.214793	-1.740148	-0.914548	12.667309	8.564137	-70.124843	80.500000	85.000000	
0.503252	0.000000	0.000000	0.000000	-38.558999	14.706040	25.577839	63.055702	-3.962420	2.272844	-12.225453	24.078758	-41.977025	80.500000	85.000000	
0.503327	0.000000	0.000000	0.000000	-45.235362	18.162198	40.036459	65.421835	-6.659023	7.352745	-8.126803	42.538808	-50.980244	80.500000	85.000000	
0.503403	0.000000	0.000000	0.000000	-31.484257	11.165547	11.936153	60.047380	-1.756376	-1.292293	24.569236	8.201541	-84.726726	80.500000	85.000000	
0.503479	0.000000	0.000000	0.000000	-31.645994	11.293148	14.977723	60.377991	-3.812114	-2.242885	23.836015	9.915384	-90.194054	80.500000	85.000000	
0.503554	0.000000	0.000000	0.000000	-37.240203	14.271838	25.647785	63.928178	-4.131180	2.259888	12.346454	26.787764	-80.666986	80.500000	85.000000	
0.503630	0.000000	0.000000	0.000000	-43.403013	17.542474	39.135597	66.596329	-6.168851	7.850508	17.698921	45.429189	-84.375703	80.500000	85.000000	
0.503705	0.000000	0.000000	0.000000	-39.690677	15.658236	31.078294	65.659963	-4.338597	5.091772	21.106366	36.867166	-86.791065	80.500000	85.000000	
0.503781	0.000000	0.000000	0.000000	-34.706577	13.005584	20.668669	62.966392	-3.205390	0.790392	19.155926	21.579870	-86.407816	80.500000	85.000000	
0.503857	0.000000	0.000000	0.000000	-31.367500	10.793895	9.107539	57.907768	-1.950848	-2.177814	122.201078	2.822279	170.748253	80.500000	85.000000	
0.503932	0.000000	0.000000	0.000000	-30.108663	10.451543	10.294108	59.174643	-2.427224	-2.481578	52.409841	5.971368	-119.054720	80.500000	85.000000	
0.504008	0.000000	0.000000	0.000000	-34.363061	12.935900	22.762421	63.412708	-4.765693	0.193684	27.986660	24.301565	-94.193985	80.500000	85.000000	
0.504083	0.000000	0.000000	0.000000	-41.541502	16.655183	35.208671	66.498237	-4.908462	6.944330	23.569303	42.993133	-86.107380	80.500000	85.000000	
0.504159	0.000000	0.000000	0.000000	-44.300947	18.049743	40.728031	67.036577	-5.875749	9.227683	20.658205	49.124863	-81.166030	80.500000	85.000000	
0.504235	0.000000	0.000000	0.000000	-38.864730	15.149842	29.395599	64.852758	-4.720868	3.659922	14.782880	32.175301	-79.769503	80.500000	85.000000	
0.504310	0.000000	0.000000	0.000000	-33.842720	12.367867	16.762466	61.291810	-2.541539	-0.247365	4.975724	13.480415	-73.855168	80.500000	85.000000	
0.504386	0.000000	0.000000	0.000000	-33.998366	11.784304	10.393152	57.057626	-2.017807	-1.654294	-170.868025	5.589251	108.651537	80.500000	85.000000	
0.504462	0.000000	0.000000	0.000000	-30.431584	10.616708	10.912548	59.360593	-2.489243	-2.343702	44.383295	6.256904	-18.947248	80.500000	85.000000	
0.504537	0.000000	0.000000	0.000000	-36.369661	13.976436	24.921556	64.472119	-3.616692	2.506564	25.786300	29.485727	-10.067453	80.500000	85.000000	
0.504613	0.000000	0.000000	0.000000	-44.362824	18.120364	42.741634	67.161853	-7.329801	8.946807	23.268073	50.556535	-20.798366	80.500000	85.000000	
0.504688	0.000000	0.000000	0.000000	-38.169706	15.050293	30.611488	66.056445	-4.891777	4.384273	34.873414	39.234965	-21.769182	80.500000	85.000000	
0.504764	0.000000	0.000000	0.000000	-33.724877	12.665749	20.579253	63.505646	-3.323151	0.653422	33.196307	24.797510	-14.645092	80.500000	85.000000	
0.504840	0.000000	0.000000	0.000000	-32.727792	11.898157	15.401567	61.359188	-2.202215	-0.473975	18.721383	13.912566	7.290842	80.500000	85.000000	
0.504915	0.000000	0.000000	0.000000	-32.495137	11.635402	13.204718	60.300314	-1.747260	-0.812512	10.502068	8.909424	17.941910	80.500000	85.000000	
0.504991	0.000000	0.000000	0.000000	-33.082577	12.135485	18.897489	61.846401	-4.326512	-1.176512	21.021936	16.514277	3.666780	80.500000	85.000000	
0.505067	0.000000	0.000000	0.000000	-39.456158	15.598849	32.728880	65.862410	-5.728506	4.597461	25.910182	38.332022	-12.847172	80.500000	85.000000	
0.505142	0.000000	0.000000	0.000000	-37.650650	14.710503	30.007746	65.395842	-5.697510	3.102202	30.182337	35.271249	-18.621239	80.500000	85.000000	
0.505218	0.000000	0.000000	0.000000	-34.017271	12.755240	22.000924	63.224188	-4.624188	-0.030713	28.438835	23.373555	-8.997625	80.500000	85.000000	
0.505293	0.000000	0.000000	0.000000	-31.115030	11.141772	14.748079	60.888437	-3.458852	-2.007020	32.516939	12.672770	-6.005238	80.500000	85.000000	
0.505369	0.000000	0.000000	0.000000	-29.575777	10.116240	9.560485	58.423659	-3.062022	-3.276046	83.284361	5.149244	-79.020663	80.500000	85.000000	
0.505445	0.000000	0.000000	0.000000	-30.423523	10.678334	10.670073	59.809756	-1.777463	-1.772370	39.717397	8.045599	-35.012644	80.500000	85.000000	
0.505520	0.000000	0.000000	0.000000	-34.590680	13.146655	22.875782	64.149351	-3.804826	1.291695	34.205007	28.148299	-35.570389	80.500000	85.000000	
0.505596	0.000000	0.000000	0.000000	-40.995125	16.503918	36.309767	66.982469	-5.753810	6.852086	32.859039	46.269733	-47.617909	80.500000	85.000000	
0.505672	0.000000	0.000000	0.000000	-42.087208	17.093931	39.804839	67.363884	-7.054123	7.638937	33.903988	50.076053	-51.488979	80.500000	85.000000	
0.505747	0.000000	0.000000	0.000000	-36.072240	14.025363	26.369990	65.547974	-3.814743	3.180585	40.282066	36.124620	-49.335974	80.500000	85.000000	
0.505823	0.000000	0.000000	0.000000	-31.748720	11.826382	19.223692	63.586191	-3.710320	-0.369402	47.355807	26.579822	-51.950640	80.500000	85.000000	
0.505898	0.000000	0.000000	0.000000	-28.978006	10.295235	12.978218	61.322068	-3.123957	-2.437441	51.465926	16.587777	-50.409686	80.500000	85.000000	
0.505974	0.000000	0.000000	0.000000	-30.464405	10.633256	11.411256	59.367362	-2.872512	-2.553410	43.639148	6.286471	-36.190425	80.500000	85.000000	
0.506050	0.000000	0.000000	0.000000	-31.223661	11.372255	16.377148	62.105362	-3.382033	-1.305059	39.288961	18.748702	-36.662831	80.500000	85.000000	
